<svg width="24" height="24" viewBox="0 0 24 24" fill="none" xmlns="http://www.w3.org/2000/svg">
<path d="M22.931 16.078C22.9314 14.956 22.656 13.8512 22.1293 12.8606C21.6025 11.87 20.8404 11.024 19.91 10.397C20.4361 9.88171 20.853 9.26561 21.1357 8.58554C21.4183 7.90546 21.5609 7.17538 21.555 6.43893C21.549 5.70249 21.3947 4.97479 21.1011 4.29937C20.8075 3.62396 20.3807 3.01468 19.8463 2.50796C19.3118 2.00124 18.6807 1.60749 17.9906 1.35025C17.3005 1.093 16.5657 0.977533 15.83 1.01077C15.0942 1.04401 14.3728 1.22525 13.7087 1.54367C13.0446 1.86209 12.4516 2.31117 11.965 2.86401C11.4785 2.31117 10.8854 1.86209 10.2213 1.54367C9.55724 1.22525 8.83576 1.04401 8.10004 1.01077C7.36432 0.977533 6.62947 1.093 5.93939 1.35025C5.24931 1.60749 4.61818 2.00124 4.08374 2.50796C3.54931 3.01468 3.12251 3.62396 2.82892 4.29937C2.53533 4.97479 2.38095 5.70249 2.375 6.43893C2.36905 7.17538 2.51167 7.90546 2.79431 8.58554C3.07695 9.26561 3.49384 9.88171 4.02002 10.397C3.08981 11.0241 2.32786 11.8702 1.80127 12.8607C1.27468 13.8513 0.999536 14.9561 1 16.078C1 16.895 1.36801 19.265 5.33301 19.978C5.81601 21.258 7.333 22.929 11.966 22.929C16.599 22.929 18.116 21.258 18.599 19.978C22.563 19.265 22.931 16.895 22.931 16.078ZM18.819 6.483C18.8165 6.96855 18.6849 7.44469 18.4376 7.86258C18.1904 8.28046 17.8364 8.62505 17.412 8.86099C17.3487 7.91097 17.0381 6.99403 16.5109 6.20114C15.9838 5.40825 15.2585 4.767 14.407 4.341C14.8799 3.95751 15.4691 3.74596 16.078 3.74099C16.8045 3.74311 17.5006 4.03271 18.0142 4.54651C18.5278 5.0603 18.8171 5.75652 18.819 6.483ZM11.965 11.966C11.4229 11.966 10.893 11.8052 10.4422 11.5041C9.99145 11.2029 9.64008 10.7748 9.43262 10.2739C9.22516 9.77307 9.17091 9.22194 9.27667 8.69024C9.38244 8.15854 9.64346 7.67017 10.0268 7.28683C10.4101 6.9035 10.8985 6.64244 11.4302 6.53668C11.9619 6.43092 12.5131 6.48519 13.0139 6.69265C13.5148 6.90011 13.9429 7.25142 14.2441 7.70218C14.5453 8.15293 14.706 8.68288 14.706 9.225C14.706 9.95179 14.4173 10.6488 13.9035 11.1628C13.3897 11.6768 12.6928 11.9657 11.966 11.966H11.965ZM7.85303 3.742C8.46189 3.74705 9.05098 3.95859 9.52399 4.34201C8.67248 4.76801 7.94717 5.40926 7.42004 6.20214C6.89291 6.99503 6.58228 7.91198 6.51898 8.862C5.98863 8.56825 5.57112 8.10637 5.33221 7.54916C5.09331 6.99195 5.04661 6.3711 5.19946 5.78442C5.35232 5.19774 5.69602 4.67859 6.17645 4.3088C6.65689 3.93902 7.24677 3.73961 7.85303 3.742ZM5.32898 17.191C3.76598 16.791 3.74103 16.079 3.74103 16.079C3.74146 15.0902 4.09972 14.1349 4.7497 13.3897C5.39967 12.6445 6.29738 12.1598 7.27698 12.025C7.51476 12.4316 7.80384 12.806 8.13702 13.139C6.73175 14.0951 5.73114 15.5386 5.32898 17.19V17.191ZM11.965 20.191C7.85303 20.191 7.85303 18.82 7.85303 18.82C7.85303 17.7294 8.28622 16.6835 9.05737 15.9124C9.82852 15.1412 10.8745 14.708 11.965 14.708C13.0556 14.708 14.1015 15.1412 14.8726 15.9124C15.6438 16.6835 16.077 17.7294 16.077 18.82C16.077 18.82 16.078 20.19 11.966 20.19L11.965 20.191ZM18.602 17.191C18.2001 15.5389 17.1996 14.0947 15.794 13.138C16.1272 12.805 16.4162 12.4306 16.654 12.024C17.6336 12.1588 18.5313 12.6435 19.1813 13.3887C19.8312 14.1339 20.1896 15.0892 20.19 16.078C20.19 16.078 20.165 16.789 18.6 17.19L18.602 17.191Z" fill="white"/>
</svg>
