<svg width="24" height="24" viewBox="0 0 24 24" fill="none" xmlns="http://www.w3.org/2000/svg">
<path d="M5.57021 23C4.86559 22.9734 4.20002 22.6695 3.71847 22.1544C3.23692 21.6393 2.9784 20.9548 2.99921 20.25V5.125C2.9784 4.42019 3.23692 3.7357 3.71847 3.22062C4.20002 2.70554 4.86559 2.4016 5.57021 2.375H7.19921C7.41099 1.9651 7.73034 1.62058 8.12301 1.37835C8.51568 1.13612 8.96687 1.00533 9.42821 1L14.5702 1C15.0316 1.00522 15.4828 1.13597 15.8755 1.37821C16.2682 1.62045 16.5875 1.96503 16.7992 2.375H18.4322C19.1361 2.40263 19.8007 2.70701 20.2814 3.22198C20.7621 3.73695 21.02 4.42085 20.9992 5.125V20.25C21.02 20.955 20.7614 21.6396 20.2796 22.1547C19.7978 22.6698 19.132 22.9737 18.4272 23H5.57021ZM5.57021 20.25H18.4272V5.125H17.1422C17.163 5.82981 16.9045 6.51431 16.423 7.02938C15.9414 7.54446 15.2758 7.8484 14.5712 7.875H9.42821C8.72342 7.84866 8.05759 7.54483 7.57583 7.02972C7.09406 6.51462 6.8354 5.82998 6.85621 5.125H5.57021V20.25ZM9.42821 5.125H14.5702V3.75H9.42821V5.125ZM9.42821 17.5C9.07924 17.4769 8.75209 17.322 8.51308 17.0667C8.27407 16.8114 8.14109 16.4747 8.14109 16.125C8.14109 15.7753 8.27407 15.4386 8.51308 15.1833C8.75209 14.928 9.07924 14.7731 9.42821 14.75H11.9992C12.3482 14.7731 12.6753 14.928 12.9143 15.1833C13.1534 15.4386 13.2863 15.7753 13.2863 16.125C13.2863 16.4747 13.1534 16.8114 12.9143 17.0667C12.6753 17.322 12.3482 17.4769 11.9992 17.5H9.42821ZM9.42821 13.375C9.08036 13.3502 8.75484 13.1945 8.51718 12.9392C8.27953 12.684 8.1474 12.3482 8.1474 11.9995C8.1474 11.6508 8.27953 11.315 8.51718 11.0598C8.75484 10.8045 9.08036 10.6488 9.42821 10.624H14.5702C14.9181 10.6488 15.2436 10.8045 15.4812 11.0598C15.7189 11.315 15.851 11.6508 15.851 11.9995C15.851 12.3482 15.7189 12.684 15.4812 12.9392C15.2436 13.1945 14.9181 13.3502 14.5702 13.375H9.42821Z" fill="white"/>
</svg>
