<svg width="24" height="24" viewBox="0 0 24 24" fill="none" xmlns="http://www.w3.org/2000/svg">
<path d="M16.6998 12.329C17.4928 11.4261 18.0087 10.3137 18.1857 9.12512C18.3626 7.93652 18.1932 6.72209 17.6977 5.62732C17.2021 4.53255 16.4015 3.60386 15.3916 2.95248C14.3818 2.30111 13.2055 1.95468 12.0038 1.95468C10.8021 1.95468 9.62588 2.30111 8.61603 2.95248C7.60618 3.60386 6.80552 4.53255 6.30997 5.62732C5.81441 6.72209 5.64499 7.93652 5.82196 9.12512C5.99894 10.3137 6.51484 11.4261 7.30783 12.329C5.77452 12.8015 4.43273 13.7524 3.479 15.0426C2.52528 16.3329 2.00972 17.8945 2.00781 19.499C2.00781 20.162 2.27121 20.7979 2.74005 21.2668C3.20889 21.7356 3.84477 21.999 4.50781 21.999H19.5078C20.1709 21.999 20.8067 21.7356 21.2756 21.2668C21.7444 20.7979 22.0078 20.162 22.0078 19.499C22.0054 17.8935 21.4886 16.3311 20.5334 15.0407C19.5781 13.7504 18.2346 12.8 16.6998 12.329ZM11.9998 4.5C12.7415 4.5 13.4665 4.71993 14.0832 5.13199C14.6999 5.54404 15.1805 6.12972 15.4644 6.81494C15.7482 7.50016 15.8225 8.25417 15.6778 8.9816C15.5331 9.70903 15.1759 10.3772 14.6515 10.9016C14.127 11.4261 13.4588 11.7833 12.7314 11.9279C12.004 12.0726 11.25 11.9984 10.5648 11.7145C9.87954 11.4307 9.29386 10.9501 8.88181 10.3334C8.46975 9.71669 8.24982 8.99168 8.24982 8.25C8.24916 7.75736 8.34571 7.26942 8.53394 6.81415C8.72216 6.35888 8.99836 5.94524 9.34671 5.59689C9.69506 5.24854 10.1087 4.97234 10.564 4.78412C11.0192 4.5959 11.5072 4.49934 11.9998 4.5ZM16.9998 19.5H4.49982C4.49982 18.1739 5.02661 16.9022 5.96429 15.9645C6.90198 15.0268 8.17373 14.5 9.49982 14.5H14.4998C15.8259 14.5 17.0977 15.0268 18.0353 15.9645C18.973 16.9022 19.4998 18.1739 19.4998 19.5H16.9998Z" fill="white"/>
</svg>
