<svg width="120" height="120" viewBox="0 0 120 120" fill="none" xmlns="http://www.w3.org/2000/svg">
<path d="M117.804 107.106L81.6397 70.745C88.164 61.5132 90.9822 50.1673 89.536 38.9557C88.0898 27.744 82.4846 17.4847 73.8313 10.2107C65.1779 2.93664 54.1078 -0.821357 42.8144 -0.318641C31.5211 0.184074 20.8286 4.91082 12.8558 12.925C4.88299 20.9391 0.211603 31.6559 -0.23271 42.9517C-0.677023 54.2475 3.13816 65.298 10.4569 73.9137C17.7756 82.5293 28.0637 88.0813 39.2827 89.4695C50.5016 90.8577 61.8327 87.9809 71.0307 81.409L107.194 117.768C107.888 118.468 108.714 119.024 109.624 119.403C110.534 119.782 111.51 119.978 112.496 119.978C113.482 119.978 114.458 119.782 115.368 119.403C116.279 119.024 117.105 118.468 117.799 117.768C119.207 116.351 119.997 114.435 119.997 112.437C119.997 110.439 119.207 108.523 117.799 107.106H117.804ZM72.7457 56.089C70.4834 61.592 66.6401 66.3006 61.7016 69.6192C56.7632 72.9378 50.9516 74.7174 45.0017 74.733C38.5478 74.7507 32.2592 72.6924 27.0649 68.862C21.8705 65.0316 18.0457 59.6323 16.1553 53.4613C14.2649 47.2904 14.4093 40.6752 16.567 34.5926C18.7247 28.51 22.7814 23.2826 28.138 19.6824C33.4945 16.0823 39.8668 14.3002 46.3138 14.5995C52.7609 14.8987 58.9407 17.2634 63.9407 21.3443C68.9407 25.4252 72.4957 31.0059 74.0807 37.2622C75.6657 43.5185 75.1966 50.1187 72.7427 56.088L72.7457 56.089Z" fill="#80ACE0"/>
<path d="M52.3497 45.014L59.2447 38.114C59.7399 37.6188 60.1326 37.031 60.4006 36.3841C60.6686 35.7371 60.8065 35.0437 60.8065 34.3435C60.8065 33.6432 60.6686 32.9499 60.4006 32.3029C60.1326 31.656 59.7399 31.0681 59.2447 30.573C58.7496 30.0778 58.1617 29.6851 57.5148 29.4171C56.8678 29.1491 56.1745 29.0112 55.4742 29.0112C54.774 29.0112 54.0806 29.1491 53.4336 29.4171C52.7867 29.6851 52.1989 30.0778 51.7037 30.573L44.8037 37.473L37.9037 30.573C37.16 29.8288 36.2126 29.3213 35.181 29.1146C34.1494 28.9079 33.0797 29.0111 32.1066 29.4112C31.1335 29.8113 30.3006 30.4905 29.7129 31.3631C29.1251 32.2358 28.8088 33.2629 28.8037 34.315V34.372C28.8106 35.7759 29.3708 37.1205 30.3627 38.114L37.2627 45.014L30.3627 51.914C29.3747 52.9075 28.8172 54.2498 28.8107 55.651V55.711C28.8162 56.7629 29.1328 57.7897 29.7207 58.6621C30.3086 59.5344 31.1415 60.2133 32.1145 60.6132C33.0875 61.0131 34.1571 61.1161 35.1885 60.9093C36.2199 60.7025 37.1671 60.1951 37.9107 59.451L44.8107 52.551L51.7107 59.451C52.2038 59.9555 52.7922 60.3572 53.4416 60.6328C54.0911 60.9084 54.7888 61.0523 55.4943 61.0564C56.1998 61.0604 56.8991 60.9244 57.5516 60.6562C58.2042 60.3881 58.7971 59.9931 59.2959 59.4942C59.7948 58.9953 60.1897 58.4024 60.4577 57.7498C60.7258 57.0972 60.8617 56.3979 60.8576 55.6924C60.8535 54.9869 60.7094 54.2892 60.4338 53.6398C60.1581 52.9903 59.7563 52.402 59.2517 51.909L52.3497 45.014Z" fill="#80ACE0"/>
</svg>
